<svg width="37" height="54" viewBox="0 0 37 54" fill="none" xmlns="http://www.w3.org/2000/svg">
<path d="M18.5 53.6667C17.907 53.6667 17.3987 53.4889 16.975 53.1334C16.5514 52.7778 16.2337 52.3111 16.0219 51.7334C15.2171 49.2445 14.2004 46.9111 12.9719 44.7334C11.7858 42.5556 10.1125 40 7.95213 37.0667C5.79171 34.1334 4.03372 31.3334 2.67817 28.6667C1.36497 26 0.708374 22.7778 0.708374 19C0.708374 13.8 2.424 9.40004 5.85525 5.80004C9.32886 2.1556 13.5438 0.333374 18.5 0.333374C23.4563 0.333374 27.65 2.1556 31.0813 5.80004C34.5549 9.40004 36.2917 13.8 36.2917 19C36.2917 23.0445 35.5504 26.4223 34.0678 29.1334C32.6275 31.8 30.9542 34.4445 29.048 37.0667C26.7605 40.2667 25.0237 42.9334 23.8375 45.0667C22.6938 47.1556 21.7407 49.3778 20.9782 51.7334C20.7664 52.3556 20.4275 52.8445 19.9615 53.2C19.5379 53.5112 19.0507 53.6667 18.5 53.6667ZM18.5 44.1334C19.2202 42.6223 20.025 41.1334 20.9146 39.6667C21.8466 38.2 23.2021 36.2445 24.9813 33.8C26.8028 31.3111 28.2855 29.0223 29.4292 26.9334C30.6153 24.8 31.2084 22.1556 31.2084 19C31.2084 15.3111 29.9587 12.1778 27.4594 9.60004C25.0025 6.97782 22.016 5.66671 18.5 5.66671C14.9841 5.66671 11.9764 6.97782 9.47713 9.60004C7.02018 12.1778 5.79171 15.3111 5.79171 19C5.79171 22.1556 6.36358 24.8 7.50733 26.9334C8.69344 29.0223 10.1973 31.3111 12.0188 33.8C13.798 36.2445 15.1323 38.2 16.0219 39.6667C16.9539 41.1334 17.7799 42.6223 18.5 44.1334ZM18.5 25.6667C20.2792 25.6667 21.783 25.0223 23.0115 23.7334C24.24 22.4445 24.8542 20.8667 24.8542 19C24.8542 17.1334 24.24 15.5556 23.0115 14.2667C21.783 12.9778 20.2792 12.3334 18.5 12.3334C16.7209 12.3334 15.2171 12.9778 13.9886 14.2667C12.7601 15.5556 12.1459 17.1334 12.1459 19C12.1459 20.8667 12.7601 22.4445 13.9886 23.7334C15.2171 25.0223 16.7209 25.6667 18.5 25.6667Z" fill="#1D1B20"/>
</svg>
